<svg id="Group_5" data-name="Group 5" xmlns="http://www.w3.org/2000/svg" width="12.479" height="20.297" viewBox="0 0 12.479 20.297">
  <g id="baloon" transform="translate(0)">
    <path id="Path_1" data-name="Path 1" d="M18.2,18.592l1.778-6.933a6.234,6.234,0,1,0-11.488.008L10.1,18.639a.78.78,0,0,0-.538.733v1.061A2.839,2.839,0,0,0,12.4,23.272H16.08a2.839,2.839,0,0,0,2.839-2.839V19.372A.78.78,0,0,0,18.2,18.592Zm-4.742,0V15.418a5.6,5.6,0,0,0,1.56,0v3.174Zm-1.77,0-.975-4.211a6.637,6.637,0,0,0,1.185.632v3.58Zm4.89,0v-3.58a5.9,5.9,0,0,0,1.076-.569ZM14.239,4.554A4.679,4.679,0,1,1,9.56,9.234a4.679,4.679,0,0,1,4.679-4.679Zm3.12,15.879a1.287,1.287,0,0,1-1.279,1.279H12.4a1.287,1.287,0,0,1-1.279-1.279v-.281h6.239Z" transform="translate(-8 -2.975)" fill="#f1f5fe"/>
    <path id="Path_2" data-name="Path 2" d="M16.78,7.56a1.56,1.56,0,0,1,1.56,1.56.78.78,0,1,0,1.56,0A3.12,3.12,0,0,0,16.78,6a.78.78,0,0,0,0,1.56Z" transform="translate(-9.761 -3.64)" fill="#f1f5fe"/>
    <rect id="Rectangle_52" data-name="Rectangle 52" width="6.934" height="1.651" transform="translate(2.584 17.043)" fill="#f1f5fe"/>
  </g>
</svg>
