<svg xmlns="http://www.w3.org/2000/svg" width="24.985" height="28.555" viewBox="0 0 24.985 28.555">
  <path id="Icon_awesome-calendar-alt" data-name="Icon awesome-calendar-alt" d="M0,25.878a2.678,2.678,0,0,0,2.677,2.677H22.308a2.678,2.678,0,0,0,2.677-2.677V10.708H0ZM17.847,14.947a.671.671,0,0,1,.669-.669h2.231a.671.671,0,0,1,.669.669v2.231a.671.671,0,0,1-.669.669H18.516a.671.671,0,0,1-.669-.669Zm0,7.139a.671.671,0,0,1,.669-.669h2.231a.671.671,0,0,1,.669.669v2.231a.671.671,0,0,1-.669.669H18.516a.671.671,0,0,1-.669-.669Zm-7.139-7.139a.671.671,0,0,1,.669-.669h2.231a.671.671,0,0,1,.669.669v2.231a.671.671,0,0,1-.669.669H11.377a.671.671,0,0,1-.669-.669Zm0,7.139a.671.671,0,0,1,.669-.669h2.231a.671.671,0,0,1,.669.669v2.231a.671.671,0,0,1-.669.669H11.377a.671.671,0,0,1-.669-.669ZM3.569,14.947a.671.671,0,0,1,.669-.669H6.469a.671.671,0,0,1,.669.669v2.231a.671.671,0,0,1-.669.669H4.239a.671.671,0,0,1-.669-.669Zm0,7.139a.671.671,0,0,1,.669-.669H6.469a.671.671,0,0,1,.669.669v2.231a.671.671,0,0,1-.669.669H4.239a.671.671,0,0,1-.669-.669ZM22.308,3.569H19.631V.892A.9.9,0,0,0,18.739,0H16.954a.9.9,0,0,0-.892.892V3.569H8.923V.892A.9.9,0,0,0,8.031,0H6.246a.9.9,0,0,0-.892.892V3.569H2.677A2.678,2.678,0,0,0,0,6.246V8.923H24.985V6.246A2.678,2.678,0,0,0,22.308,3.569Z" fill="#162133"/>
</svg>
