<svg id="Group_39" data-name="Group 39" xmlns="http://www.w3.org/2000/svg" width="15.777" height="19" viewBox="0 0 15.777 19">
  <path id="Path_3" data-name="Path 3" d="M18.94,16.14,15.406,9.953h1.259a.431.431,0,0,0,.38-.221.45.45,0,0,0,0-.442L14.641,5.084,13.006,2.221a.445.445,0,0,0-.769,0L8.2,9.291a.45.45,0,0,0,0,.442.431.431,0,0,0,.38.221H9.843L6.18,16.36a.45.45,0,0,0,0,.442.431.431,0,0,0,.38.221h5.691v3.535a.442.442,0,0,0,.884,0V17.023h5.545a.431.431,0,0,0,.38-.221.439.439,0,0,0,0-.442Z" transform="translate(-6.124 -2)" fill="#f1f5fe"/>
  <path id="Path_4" data-name="Path 4" d="M33.244,16.593,30.085,11.07h1.007a.431.431,0,0,0,.38-.221.439.439,0,0,0,0-.442L27.942,4.221a.445.445,0,0,0-.769,0L26.55,5.312,29.214,9.97a1.328,1.328,0,0,1-.9,1.962l2.921,5.108a1.353,1.353,0,0,1,.1.217H32.86a.431.431,0,0,0,.38-.221.439.439,0,0,0,0-.442Zm-6.053,5.081a.442.442,0,0,0,.884,0V19.023h-.884Z" transform="translate(-17.524 -3.116)" fill="#f1f5fe"/>
</svg>
