<svg id="Group_8" data-name="Group 8" xmlns="http://www.w3.org/2000/svg" width="82.426" height="88.249" viewBox="0 0 82.426 88.249">
  <g id="Group_7" data-name="Group 7" transform="translate(0 0)">
    <path id="Path_3" data-name="Path 3" d="M42.359,41.975,32.365,24.486h3.56A1.219,1.219,0,0,0,37,23.861a1.272,1.272,0,0,0,.013-1.249L30.2,10.72,25.582,2.625a1.258,1.258,0,0,0-2.174,0L11.99,22.612A1.272,1.272,0,0,0,12,23.861a1.219,1.219,0,0,0,1.074.625h3.56L6.281,42.6a1.272,1.272,0,0,0,.012,1.249,1.219,1.219,0,0,0,1.074.625h16.09v9.994a1.249,1.249,0,0,0,2.5,0V44.474H41.634a1.219,1.219,0,0,0,1.074-.625,1.241,1.241,0,0,0,.012-1.249Z" transform="translate(-6.124 -2)" fill="#515877"/>
    <path id="Path_4" data-name="Path 4" d="M45.476,39.6,36.544,23.988h2.848a1.219,1.219,0,0,0,1.074-.625,1.241,1.241,0,0,0,.012-1.249L30.485,4.625a1.258,1.258,0,0,0-2.174,0L26.55,7.71l7.533,13.167a3.754,3.754,0,0,1-2.536,5.547L39.8,40.865a3.827,3.827,0,0,1,.275.612h4.31a1.219,1.219,0,0,0,1.074-.625,1.241,1.241,0,0,0,.012-1.249ZM28.361,53.969a1.249,1.249,0,1,0,2.5,0v-7.5h-2.5Z" transform="translate(-1.033 -1.502)" fill="#515877"/>
  </g>
  <circle id="Ellipse_2" data-name="Ellipse 2" cx="37.821" cy="37.821" r="37.821" transform="translate(6.784 12.607)" fill="#515877" opacity="0.4"/>
</svg>
