<svg xmlns="http://www.w3.org/2000/svg" width="21.364" height="20.543" viewBox="0 0 21.364 20.543">
  <path id="Icon_ionic-ios-heart-empty" data-name="Icon ionic-ios-heart-empty" d="M18.987,3.937h-.051a5.844,5.844,0,0,0-4.879,2.671A5.844,5.844,0,0,0,9.178,3.937H9.127a5.806,5.806,0,0,0-5.752,5.8A12.5,12.5,0,0,0,5.83,16.556a43.02,43.02,0,0,0,8.227,7.924,43.02,43.02,0,0,0,8.227-7.924,12.5,12.5,0,0,0,2.455-6.815A5.806,5.806,0,0,0,18.987,3.937Zm2.136,11.771a39.39,39.39,0,0,1-7.067,6.964A39.449,39.449,0,0,1,6.991,15.7,11.079,11.079,0,0,1,4.813,9.741a4.357,4.357,0,0,1,4.324-4.36h.046a4.306,4.306,0,0,1,2.111.555A4.488,4.488,0,0,1,12.855,7.4a1.443,1.443,0,0,0,2.414,0A4.532,4.532,0,0,1,16.83,5.935a4.306,4.306,0,0,1,2.111-.555h.046a4.357,4.357,0,0,1,4.324,4.36A11.22,11.22,0,0,1,21.124,15.708Z" transform="translate(-3.375 -3.937)" fill="#fff"/>
</svg>
