<svg xmlns="http://www.w3.org/2000/svg" width="93.708" height="76.422" viewBox="0 0 93.708 76.422">
  <g id="Group_41" data-name="Group 41" transform="translate(-16.115 -28.771)">
    <g id="Layer_12" data-name="Layer 12" transform="translate(16.115 28.771)">
      <path id="Path_7" data-name="Path 7" d="M60.9,52.1H10.37L29.727,21.739l4.736-7.371a1.367,1.367,0,0,1,2.342,0L41.954,22.5Z" transform="translate(6.98 -12.752)" fill="#515877"/>
      <path id="Path_10" data-name="Path 10" d="M31.412,22.5l-3,5.1L24.382,21.6,22.539,26.19,17.89,21.739l5.216-7.371a1.588,1.588,0,0,1,2.58,0Z" transform="translate(18.141 -12.752)" fill="#f1f5fe"/>
      <path id="Path_11" data-name="Path 11" d="M47.84,48.791H3.92L20.739,22.569l4.056-6.492a1.2,1.2,0,0,1,2.041,0l4.521,7.059Z" transform="translate(-2.871 -9.443)" fill="#515877"/>
      <path id="Path_14" data-name="Path 14" d="M22.138,23.136,19.53,27.558l-3.487-5.216-1.616,3.969-4-3.742,4.451-6.492a1.389,1.389,0,0,1,2.24,0Z" transform="translate(6.92 -9.443)" fill="#f1f5fe"/>
      <path id="Path_15" data-name="Path 15" d="M72.322,52.009,53.536,22.527h0l-1.234-1.7-4.061-6.35a2.3,2.3,0,0,0-1.979-1.106,2.5,2.5,0,0,0-1.876,1.077h0l-4.7,7.371h0l-5.011,7.824L32.642,26.5h0l-4.523-7.087a2.1,2.1,0,0,0-1.8-1.021h0a2.1,2.1,0,0,0-1.8,1.021l-4.086,6.378h0L3.679,52.009c-.334.907,0,1.474.8,1.673h67.05C72.4,53.569,72.656,53.03,72.322,52.009Zm-26.5-36.4a.363.363,0,0,1,.257-.2h.231a.292.292,0,0,1,.257.2l4.395,6.634.591.936-1.619,3.033-2.8-4.592a.924.924,0,0,0-.9-.483.972.972,0,0,0-.792.681L44.31,24.937l-2.57-2.693Zm-19.609,4.9a.236.236,0,0,1,.231,0l4.138,6.492-1.259,2.353-2.313-3.8a.943.943,0,0,0-.9-.45.992.992,0,0,0-.8.649l-.925,2.523-2-2.126,3.6-5.67a.239.239,0,0,1,.334.028Zm-4.934,7.512L24.084,31a.9.9,0,0,0,.875.29.985.985,0,0,0,.692-.658l.771-2.126,2.262,3.657a.936.936,0,0,0,1.722,0l1.593-3L46.417,51.839H6.326ZM48.6,51.669,35.752,31.428,40.686,24l3.392,3.572a.892.892,0,0,0,.86.269.983.983,0,0,0,.682-.637l1-2.835,2.57,4.366a.93.93,0,0,0,1.645,0l1.953-3.685L69.727,51.641Z" transform="translate(-3.55 -13.37)" fill="#494f6b"/>
    </g>
    <circle id="Ellipse_2" data-name="Ellipse 2" cx="38" cy="38" r="38" transform="translate(33.824 29.193)" fill="#515877" opacity="0.4"/>
  </g>
</svg>
