<svg xmlns="http://www.w3.org/2000/svg" width="50" height="50" viewBox="0 0 50 50">
  <g id="Group_34" data-name="Group 34" transform="translate(-1723 -1979)">
    <circle id="Ellipse_14" data-name="Ellipse 14" cx="25" cy="25" r="25" transform="translate(1723 1979)" fill="#f1f5fe"/>
    <path id="Icon_awesome-linkedin-in" data-name="Icon awesome-linkedin-in" d="M5.869,26.219H.433V8.714H5.869ZM3.148,6.327A3.163,3.163,0,1,1,6.3,3.149,3.175,3.175,0,0,1,3.148,6.327ZM26.213,26.219H20.789V17.7c0-2.031-.041-4.635-2.826-4.635-2.826,0-3.259,2.206-3.259,4.489v8.667H9.274V8.714h5.213V11.1h.076a5.712,5.712,0,0,1,5.143-2.827c5.5,0,6.513,3.623,6.513,8.328v9.615Z" transform="translate(1735.641 1990.89)" fill="#263143"/>
  </g>
</svg>
