<svg xmlns="http://www.w3.org/2000/svg" width="83.374" height="82.577" viewBox="0 0 83.374 82.577">
  <g id="Group_42" data-name="Group 42" transform="translate(-28.735 -22.617)">
    <path id="Union_2" data-name="Union 2" d="M7.67,51.136A7.671,7.671,0,0,1,0,43.465a2.557,2.557,0,0,1,5.113,0A2.557,2.557,0,0,0,7.67,46.022h2.556V40.908H7.134A7.133,7.133,0,0,1,0,33.775V28.3c0-.036,0-.073,0-.109s0-.073,0-.109V2.557A2.557,2.557,0,0,1,2.557,0H25.568a2.557,2.557,0,0,1,2.556,2.557V15.6l8.8,1A15.954,15.954,0,0,1,50.88,29.582a2.563,2.563,0,0,1,.256,1.1,3.712,3.712,0,0,1,0,.562v2.531A7.134,7.134,0,0,1,44,40.908H40.908v5.114h2.557a2.557,2.557,0,0,0,2.556-2.557,2.557,2.557,0,0,1,5.114,0,7.671,7.671,0,0,1-7.67,7.671Zm7.67-5.114H35.795V40.908H15.341ZM5.114,15.545A15.34,15.34,0,0,1,17.488,27.127a1.33,1.33,0,0,0,1.3,1H45.1a10.84,10.84,0,0,0-8.743-6.418L25.286,20.454A2.558,2.558,0,0,1,23.011,17.9V5.114H5.114Z" transform="translate(28.735 22.617)" fill="#515877"/>
    <ellipse id="Ellipse_2" data-name="Ellipse 2" cx="39" cy="38" rx="39" ry="38" transform="translate(34.11 29.193)" fill="#515877" opacity="0.4"/>
  </g>
</svg>
