<svg xmlns="http://www.w3.org/2000/svg" width="86.558" height="87.455" viewBox="0 0 86.558 87.455">
  <g id="Group_40" data-name="Group 40" transform="translate(-24.014 -17.739)">
    <circle id="Ellipse_2" data-name="Ellipse 2" cx="38" cy="38" r="38" transform="translate(34.572 29.193)" fill="#515877" opacity="0.4"/>
    <g id="Group_10" data-name="Group 10" transform="translate(24.014 17.739)">
      <path id="Path_5" data-name="Path 5" d="M22.928,21.115a7.5,7.5,0,0,1,4.063,8.127L24.036,43.833l.831.554A4.609,4.609,0,0,0,27.36,45.4a3.989,3.989,0,0,0,2.493-1.016A9.052,9.052,0,0,1,38.719,43l-2.77-13.76a7.557,7.557,0,0,1,4.063-8.127A18.978,18.978,0,0,0,50.539,4.123a.872.872,0,0,0-.923-.923c-7.3,0-14.683,4.063-18.1,9.6C28.007,7.171,20.527,3.2,13.323,3.2a.925.925,0,0,0-.923.923A18.813,18.813,0,0,0,22.928,21.115Z" transform="translate(-1.872 -3.2)" fill="#515877"/>
      <path id="Path_6" data-name="Path 6" d="M1.923,49.547A5.322,5.322,0,0,1,5.433,50.84c3.14,2.216,6.187,2.216,9.235,0,2.4-1.755,4.617-1.755,7.111,0,3.047,2.216,6.095,2.216,9.235,0,2.493-1.755,4.617-1.755,7.111,0,3.14,2.216,6.187,2.216,9.235,0,2.493-1.755,4.617-1.755,7.111,0A7.369,7.369,0,0,0,59.086,52.5a.872.872,0,0,0,.923-.923.925.925,0,0,0-.923-.923,4.89,4.89,0,0,1-3.509-1.293c-3.047-2.216-6.095-2.216-9.235,0-2.493,1.755-4.71,1.755-7.111,0-3.047-2.216-6.095-2.216-9.235,0-2.493,1.755-4.617,1.755-7.111,0-3.14-2.216-6.187-2.216-9.235,0-2.493,1.755-4.617,1.755-7.111,0A7.369,7.369,0,0,0,1.923,47.7.872.872,0,0,0,1,48.623.925.925,0,0,0,1.923,49.547ZM59.179,59.8A5.322,5.322,0,0,1,55.67,58.5a7.369,7.369,0,0,0-4.617-1.662A6.871,6.871,0,0,0,46.435,58.5a5.534,5.534,0,0,1-7.111,0,7.244,7.244,0,0,0-9.235,0c-2.493,1.755-4.617,1.755-7.111,0-3.14-2.216-6.187-2.216-9.235,0-2.493,1.755-4.617,1.755-7.111,0a7.369,7.369,0,0,0-4.617-1.662.923.923,0,1,0,0,1.847,4.89,4.89,0,0,1,3.509,1.293c3.14,2.216,6.187,2.216,9.235,0,2.4-1.755,4.617-1.755,7.111,0,3.14,2.216,6.187,2.216,9.235,0,2.493-1.755,4.617-1.755,7.111,0,3.14,2.216,6.095,2.216,9.235,0a5.057,5.057,0,0,1,3.509-1.293,5.306,5.306,0,0,1,3.6,1.293,7.369,7.369,0,0,0,4.617,1.662.923.923,0,1,0,0-1.847Z" transform="translate(-1 -6.605)" fill="#515877"/>
    </g>
  </g>
</svg>
