<svg xmlns="http://www.w3.org/2000/svg" width="50" height="50" viewBox="0 0 50 50">
  <g id="Group_33" data-name="Group 33" transform="translate(-1560 -1979)">
    <circle id="Ellipse_13" data-name="Ellipse 13" cx="25" cy="25" r="25" transform="translate(1560 1979)" fill="#f1f5fe"/>
    <path id="Icon_ionic-logo-twitter" data-name="Icon ionic-logo-twitter" d="M30.621,7.316a12.115,12.115,0,0,1-3.441.947,6.013,6.013,0,0,0,2.637-3.317A11.907,11.907,0,0,1,26.01,6.4a5.99,5.99,0,0,0-10.367,4.1,5.867,5.867,0,0,0,.155,1.368A16.982,16.982,0,0,1,3.443,5.6,6,6,0,0,0,5.306,13.6a5.853,5.853,0,0,1-2.723-.749v.074a6,6,0,0,0,4.809,5.88,6.032,6.032,0,0,1-1.578.21,5.653,5.653,0,0,1-1.126-.111,6,6,0,0,0,5.6,4.165,12.014,12.014,0,0,1-7.446,2.569,12.146,12.146,0,0,1-1.43-.087,16.749,16.749,0,0,0,9.173,2.711c11.036,0,17.064-9.142,17.064-17.07,0-.26-.006-.52-.019-.774A12.2,12.2,0,0,0,30.621,7.316Z" transform="translate(1569.587 1989.5)" fill="#162133"/>
  </g>
</svg>
